:SAMPLES-PER-SECOND 30
:FULLY-SPECIFIED
:DEGREES
72
root  -36.7247 37.8876 -27.988 -93.3766 -88.3566 110.676
RightUpLeg  -54.4436 -25.266 13.5239
RightLeg  26.7947 3.40945 1.63956
RightFoot  7.23294 1.39002 -8.17638
RightToes  0.00048216 0.542163 -0.142577
Spine  59.5922 -5.69207 10.1175
Spine1  12.3757 0.902456 -2.05575
HEad  -30.075 -9.9061 -1.99016
LeftShoulder1  9.71517 -26.3288 -26.2113
LeftArm  -34.6732 -56.5832 -9.29935
LeftForeArm  17.4217 -0.124993 -3.35616
LeftHand  -0.25398 0.0180481 5.50724
RightShoulder  4.32882 14.2488 17.8017
RightArm  -34.0748 48.2161 9.56526
RightForeArm  -1.24869 -4.36089 3.71832
RightHand  -0.692534 3.08068 -9.7554
LeftUpLeg  -53.2276 23.6159 -20.7435
LeftLeg  31.7292 6.85288 4.89507
LeftFoot  -3.21368 -0.549656 7.96447
LeftToes  1.06248e-005 4.65855e-005 -8.185e-006
73
root  -37.2094 37.7408 -28.3722 -81.3729 -89.0226 102.673
RightUpLeg  -59.0321 -24.2308 16.5442
RightLeg  28.358 3.166 1.61571
RightFoot  6.23532 1.49567 -9.37074
RightToes  0.00048216 0.542163 -0.142577
Spine  61.9056 -6.32674 10.7317
Spine1  10.3418 1.31125 -3.117
HEad  -32.2075 -9.65146 -1.4551
LeftShoulder1  9.42231 -27.0132 -24.4432
LeftArm  -40.1231 -57.7809 -4.36598
LeftForeArm  15.553 -1.16553 -2.58408
LeftHand  -0.25398 0.0180481 5.50724
RightShoulder  4.50769 15.3273 17.3058
RightArm  -40.3427 51.6318 0.972857
RightForeArm  -1.00874 -4.691 3.46722
RightHand  -0.60426 3.54694 -8.15957
LeftUpLeg  -57.1301 22.7133 -21.9341
LeftLeg  30.5324 6.42053 4.42531
LeftFoot  -3.82019 -0.618593 9.71785
LeftToes  1.06248e-005 4.65855e-005 -8.185e-006
74
root  -37.6616 37.5892 -28.7668 -55.3696 -89.2927 80.1722
RightUpLeg  -63.2011 -23.2932 19.0086
RightLeg  30.1358 2.91116 1.58533
RightFoot  4.72853 1.4889 -10.2807
RightToes  0.00048216 0.542163 -0.142577
Spine  64.1157 -6.57299 10.8263
Spine1  8.64172 1.54179 -3.82255
HEad  -34.4098 -9.39148 -0.360307
LeftShoulder1  8.80927 -27.6821 -21.6662
LeftArm  -46.2132 -59.1967 1.56367
LeftForeArm  12.0309 -1.21854 -1.875
LeftHand  -0.25398 0.0180481 5.50724
RightShoulder  4.61425 16.3348 16.5604
RightArm  -47.4177 53.8393 -8.52469
RightForeArm  0.0332683 -4.43507 3.18982
RightHand  -0.554003 4.5364 -6.83045
LeftUpLeg  -61.3954 21.7285 -22.1627
LeftLeg  32.7881 6.1951 4.63523
LeftFoot  -3.62993 -0.600547 9.215
LeftToes  1.06248e-005 4.65855e-005 -8.185e-006
75
root  -38.1135 37.4383 -29.1611 -42.5923 -89.03 70.5139
RightUpLeg  -66.9531 -22.6215 21.0444
RightLeg  31.8593 2.92208 1.71082
RightFoot  3.3305 1.46072 -11.122
RightToes  0.00048216 0.542163 -0.142577
Spine  66.1679 -6.3053 10.5562
Spine1  7.21202 1.79566 -4.04275
HEad  -36.5123 -9.50602 0.592012
LeftShoulder1  8.46249 -28.6451 -19.5944
LeftArm  -53.6654 -60.6183 9.21952
LeftForeArm  8.9067 -1.08108 -1.15067
LeftHand  -0.25398 0.0180481 5.50724
RightShoulder  4.54955 17.0887 15.2799
RightArm  -54.4528 54.314 -18.005
RightForeArm  -0.237678 -4.00497 2.88842
RightHand  -0.472087 5.22161 -5.53344
LeftUpLeg  -65.1814 21.6395 -23.3626
LeftLeg  34.4626 5.15452 4.15848
LeftFoot  -3.82043 -0.529469 8.39122
LeftToes  1.06248e-005 4.65855e-005 -8.185e-006
76
root  -38.5953 37.3129 -29.4889 -41.7286 -88.7868 72.9111
RightUpLeg  -70.5419 -21.9017 23.0855
RightLeg  33.1139 3.21022 2.00073
RightFoot  2.36163 1.47 -12.0419
RightToes  0.00048216 0.542163 -0.142577
Spine  67.8203 -6.12294 10.421
Spine1  6.01868 2.21833 -4.73454
HEad  -38.3543 -9.95362 1.17292
LeftShoulder1  8.3386 -29.7599 -18.2242
LeftArm  -61.6978 -61.3268 17.422
LeftForeArm  7.6471 -1.87752 -0.399405
LeftHand  -0.25398 0.0180481 5.50724
RightShoulder  4.32522 17.4873 13.6428
RightArm  -60.555 53.6262 -25.4078
RightForeArm  -2.2968 -3.39754 2.42988
RightHand  -0.295728 5.19018 -3.62272
LeftUpLeg  -68.5303 21.5531 -25.231
LeftLeg  34.6874 4.04158 3.36747
LeftFoot  -4.61001 -0.468984 8.43648
LeftToes  1.06248e-005 4.65855e-005 -8.185e-006
77
root  -39.0968 37.2253 -29.7383 -39.7283 -88.7811 74.3534
RightUpLeg  -73.8849 -20.8845 25.1256
RightLeg  33.8634 3.51923 2.28319
RightFoot  1.43894 1.45282 -12.8156
RightToes  0.00048216 0.542163 -0.142577
Spine  69.0949 -6.18112 10.2969
Spine1  4.79732 2.56185 -6.00492
HEad  -39.8251 -10.2338 1.64523
LeftShoulder1  7.95217 -30.6023 -16.318
LeftArm  -68.2936 -60.9093 24.2254
LeftForeArm  6.74735 -3.2416 0.265191
LeftHand  -0.25398 0.0180481 5.50724
RightShoulder  4.05669 17.6515 12.0683
RightArm  -65.4384 52.9036 -30.2896
RightForeArm  -5.43218 -2.43688 1.99928
RightHand  -0.174532 5.37354 -2.29295
LeftUpLeg  -71.8077 20.9598 -26.6108
LeftLeg  35.0007 3.58633 3.06221
LeftFoot  -5.35629 -0.403548 8.31527
LeftToes  1.06248e-005 4.65855e-005 -8.185e-006
78
root  -39.5895 37.1672 -29.9518 -39.6437 -88.8318 77.3724
RightUpLeg  -76.5803 -19.7707 26.7483
RightLeg  34.3672 3.62695 2.40755
RightFoot  0.476299 1.38713 -13.2936
RightToes  0.00048216 0.542163 -0.142577
Spine  70.2758 -6.07336 9.78352
Spine1  3.42464 2.55633 -6.87641
HEad  -40.9113 -10.0206 2.05343
LeftShoulder1  7.09768 -30.9466 -13.3663
LeftArm  -72.751 -59.6321 28.6399
LeftForeArm  4.23796 -4.10734 1.01591
LeftHand  -0.25398 0.0180481 5.50724
RightShoulder  3.78013 17.8156 10.4688
RightArm  -68.77 52.389 -33.1165
RightForeArm  -9.83272 -0.961762 1.90186
RightHand  -0.33053 6.7055 -3.55265
LeftUpLeg  -74.761 20.4075 -27.4929
LeftLeg  35.7701 3.29468 2.91562
LeftFoot  -5.79999 -0.322234 7.36974
LeftToes  1.06248e-005 4.65855e-005 -8.185e-006
79
root  -40.0519 37.1158 -30.1372 -41.8363 -88.8991 81.9879
RightUpLeg  -78.5567 -18.7925 27.8979
RightLeg  34.9382 3.54191 2.39729
RightFoot  -0.192914 1.33284 -13.5878
RightToes  0.00048216 0.542163 -0.142577
Spine  71.4493 -5.6111 8.99617
Spine1  2.25183 2.41977 -6.9136
HEad  -41.7063 -9.5226 2.1449
LeftShoulder1  6.0672 -30.8531 -10.1508
LeftArm  -75.9751 -58.1599 30.9222
LeftForeArm  0.769223 -4.61167 2.0146
LeftHand  -0.25398 0.0180481 5.50724
RightShoulder  3.35937 17.7808 8.29341
RightArm  -70.9937 51.9048 -33.5869
RightForeArm  -15.7511 0.97474 1.84324
RightHand  -0.767171 8.7288 -6.76642
LeftUpLeg  -77.0563 20.292 -28.4048
LeftLeg  36.2638 2.62108 2.4342
LeftFoot  -6.15497 -0.26695 6.71174
LeftToes  1.06248e-005 4.65855e-005 -8.185e-006
80
root  -40.4677 37.0355 -30.2592 -41.2453 -89.1886 83.2527
RightUpLeg  -80.2052 -17.9306 28.9545
RightLeg  35.8794 3.35571 2.34032
RightFoot  -0.606934 1.3015 -13.8117
RightToes  0.00048216 0.542163 -0.142577
Spine  72.3259 -5.08308 8.39224
Spine1  1.71814 2.45326 -6.75008
HEad  -42.3308 -9.03624 1.939
LeftShoulder1  5.21428 -30.4862 -7.60226
LeftArm  -78.5468 -56.9565 32.1236
LeftForeArm  -2.02923 -5.69303 2.85162
LeftHand  -0.25398 0.0180481 5.50724
RightShoulder  2.77749 17.0581 5.74642
RightArm  -73.9258 51.796 -31.9981
RightForeArm  -21.4223 2.93508 1.23434
RightHand  -1.12706 10.3365 -8.82882
LeftUpLeg  -78.9346 20.2535 -29.0247
LeftLeg  36.749 2.11137 2.06443
LeftFoot  -6.51734 -0.26247 7.15871
LeftToes  1.06248e-005 4.65855e-005 -8.185e-006
81
root  -40.8234 36.9125 -30.3139 -30.2762 -89.5447 73.699
RightUpLeg  -81.835 -17.2817 30.0001
RightLeg  37.3015 3.05179 2.22048
RightFoot  -1.13681 1.24696 -13.9642
RightToes  0.00048216 0.542163 -0.142577
Spine  72.7321 -4.87735 8.05656
Spine1  1.95081 2.44373 -6.94424
HEad  -42.8651 -8.49273 1.78827
LeftShoulder1  4.58591 -29.8249 -5.86
LeftArm  -80.4152 -56.1766 33.1147
LeftForeArm  -4.59753 -7.58142 3.06644
LeftHand  -0.25398 0.0180481 5.50724
RightShoulder  2.27746 15.8166 3.82833
RightArm  -78.1847 52.2355 -30.0739
RightForeArm  -24.5777 4.5876 0.158753
RightHand  -1.05576 11.0204 -7.96058
LeftUpLeg  -80.6031 19.9174 -28.9751
LeftLeg  37.9098 2.26593 2.27116
LeftFoot  -6.76796 -0.275832 7.91458
LeftToes  1.06248e-005 4.65855e-005 -8.185e-006
82
root  -41.1167 36.7748 -30.3364 -14.9465 -89.5854 59.2789
RightUpLeg  -83.3336 -17.0327 30.7182
RightLeg  38.9869 2.58962 1.96367
RightFoot  -1.80912 1.16666 -14.05
RightToes  0.00048216 0.542163 -0.142577
Spine  72.8999 -5.00246 7.74111
Spine1  2.7313 2.1145 -7.31727
HEad  -43.3609 -7.74355 1.84504
LeftShoulder1  4.14915 -28.7924 -4.86179
LeftArm  -82.74 -55.9874 33.8538
LeftForeArm  -7.57005 -10.0756 2.90317
LeftHand  -0.25398 0.0180481 5.50724
RightShoulder  2.01382 14.7945 2.94855
RightArm  -81.889 52.5437 -29.0919
RightForeArm  -25.3434 6.23939 -0.619658
RightHand  -0.709427 11.196 -5.48422
LeftUpLeg  -81.8365 19.4554 -28.7203
LeftLeg  39.4557 2.62791 2.69941
LeftFoot  -6.94965 -0.266309 8.02257
LeftToes  1.06248e-005 4.65855e-005 -8.185e-006
83
root  -41.3507 36.664 -30.339 -20.8822 -89.45 65.6676
RightUpLeg  -84.4671 -17.0594 31.087
RightLeg  40.5268 2.07152 1.60569
RightFoot  -2.24896 1.11485 -14.1213
RightToes  0.00048216 0.542163 -0.142577
Spine  73.1125 -5.15488 7.32759
Spine1  3.67857 1.67679 -7.57996
HEad  -43.8711 -6.85739 1.91946
LeftShoulder1  3.96496 -27.5117 -4.81275
LeftArm  -88.3858 -56.3704 33.831
LeftForeArm  -7.82869 -13.4567 2.26873
LeftHand  -0.25398 0.0180481 5.50724
RightShoulder  1.9026 14.191 2.66171
RightArm  -83.5976 52.2736 -28.5583
RightForeArm  -25.5955 8.6082 -0.565537
RightHand  -0.463361 11.3477 -3.7456
LeftUpLeg  -82.5383 19.1889 -28.6922
LeftLeg  40.6983 2.75951 2.92918
LeftFoot  -7.22119 -0.231497 7.63277
LeftToes  1.06248e-005 4.65855e-005 -8.185e-006
84
root  -41.522 36.5918 -30.301 -22.6985 -89.5527 67.7238
RightUpLeg  -85.2441 -17.0691 31.5481
RightLeg  41.6711 1.6987 1.32084
RightFoot  -2.26058 1.11719 -14.1692
RightToes  0.00048216 0.542163 -0.142577
Spine  73.3816 -5.13941 6.92939
Spine1  4.37595 1.4474 -7.73249
HEad  -44.364 -6.02633 1.81716
LeftShoulder1  4.05025 -26.2838 -5.73677
LeftArm  -97.5028 -56.8365 33.1852
LeftForeArm  -2.43248 -17.5226 0.0929899
LeftHand  -0.25398 0.0180481 5.50724
RightShoulder  1.88247 13.7474 2.84519
RightArm  -84.7095 51.8443 -27.8042
RightForeArm  -25.6828 12.0629 0.344759
RightHand  -0.391724 11.1115 -3.28738
LeftUpLeg  -83.0496 19.1544 -28.6171
LeftLeg  41.6501 2.87055 3.12658
LeftFoot  -7.53705 -0.196275 7.2689
LeftToes  1.06248e-005 4.65855e-005 -8.185e-006
85
root  -41.628 36.5458 -30.2188 -27.8364 -89.9193 73.0446
RightUpLeg  -85.8409 -17.081 32.3072
RightLeg  42.421 1.60152 1.26342
RightFoot  -2.04542 1.1325 -14.0118
RightToes  0.00048216 0.542163 -0.142577
Spine  73.5377 -5.07034 6.63123
Spine1  4.74958 1.33465 -7.83324
HEad  -44.7948 -5.40943 1.55662
LeftShoulder1  4.20295 -25.2633 -6.87779
LeftArm  -104.422 -57.0286 32.9007
LeftForeArm  3.59127 -20.6107 -2.69541
LeftHand  -0.25398 0.0180481 5.50724
RightShoulder  1.97993 13.5516 3.63126
RightArm  -87.2336 51.5083 -27.2338
RightForeArm  -23.94 15.8227 2.02184
RightHand  -0.31808 10.292 -2.86933
LeftUpLeg  -83.5941 19.167 -28.316
LeftLeg  42.5531 3.12579 3.46851
LeftFoot  -7.68092 -0.180048 7.08692
LeftToes  1.06248e-005 4.65855e-005 -8.185e-006
86
root  -41.6766 36.5185 -30.1174 95.2984 -89.7643 -49.9872
RightUpLeg  -86.3442 -17.2857 33.0366
RightLeg  42.87 1.69337 1.37608
RightFoot  -1.85111 1.1133 -13.4832
RightToes  0.00048216 0.542163 -0.142577
Spine  73.5133 -5.12038 6.41269
Spine1  5.04197 1.12643 -7.88113
HEad  -45.1827 -5.08005 1.25492
LeftShoulder1  4.19027 -24.4323 -7.32189
LeftArm  -106.614 -57.0677 33.1976
LeftForeArm  5.26102 -21.9887 -3.91492
LeftHand  -0.25398 0.0180481 5.50724
RightShoulder  2.14898 13.73 4.60382
RightArm  -89.4897 51.0243 -27.0573
RightForeArm  -21.2265 18.8601 3.75317
RightHand  -0.126327 9.39412 -1.49353
LeftUpLeg  -83.9967 19.096 -28.1366
LeftLeg  43.2082 3.3206 3.73755
LeftFoot  -7.58231 -0.189108 7.18092
LeftToes  1.06248e-005 4.65855e-005 -8.185e-006
